<?xml version="1.0" encoding="UTF-8"?>
<svg id="Layer_2" data-name="Layer 2" xmlns="http://www.w3.org/2000/svg" viewBox="0 0 2267.85 796.09">
  <defs>
    <style>
      .cls-1 {
        fill: #fff;
      }

      .cls-2 {
        fill: none;
        stroke: #3fbda4;
        stroke-miterlimit: 10;
        stroke-width: 6.32px;
      }
    </style>
  </defs>
  <g id="Layer_1-2" data-name="Layer 1">
    <g>
      <g>
        <path class="cls-1" d="m98.38,405.46c-20.35,0-35.19-4.02-44.51-12.06-8.84-7.62-13.26-19.35-13.26-35.22,0-10.26,1.82-19.25,5.46-26.97l16.07-2.78c-4.18,8.41-6.27,17.74-6.27,28,0,12.9,3.08,22.18,9.24,27.84,6.8,6.19,18.48,9.28,35.03,9.28h28.04v-64.49h15.1v76.39h-44.91Zm-20.25-93.76c-1.66-1.69-2.49-3.81-2.49-6.35,0-2.33.83-4.33,2.49-6.03,1.71-1.69,3.8-2.54,6.27-2.54s4.45.82,6.11,2.46c1.71,1.69,2.57,3.73,2.57,6.11s-.86,4.52-2.57,6.27c-1.71,1.69-3.75,2.54-6.11,2.54s-4.55-.82-6.27-2.46Zm24.34,0c-1.77-1.69-2.65-3.81-2.65-6.35,0-2.33.88-4.33,2.65-6.03,1.71-1.69,3.8-2.54,6.27-2.54s4.42.82,6.03,2.46c1.66,1.69,2.49,3.73,2.49,6.11s-.83,4.57-2.49,6.27-3.67,2.54-6.03,2.54c-2.52,0-4.61-.82-6.27-2.46Z"/>
        <path class="cls-1" d="m171.62,290.92h15.1v114.54h-15.1v-114.54Z"/>
        <path class="cls-1" d="m188.85,444.96l1.61-12.37c5.09,1.85,10.63,2.78,16.63,2.78,7.28,0,12.64-1.98,16.07-5.95,3.91-4.39,5.87-11.66,5.87-21.81v-78.53h15.1v77.18c0,27.29-12.72,40.93-38.16,40.93-5.62,0-11.33-.74-17.11-2.22Z"/>
        <path class="cls-1" d="m272.29,290.92h15.1v102.64h18.16v11.9h-33.26v-114.54Z"/>
        <path class="cls-1" d="m412.17,405.46c-10.5,0-18.13-.9-22.9-2.7-4.98-1.85-8.65-5.29-11.01-10.31-3.64,9.41-11.92,14.12-24.83,14.12-11.57,0-18.67-4.65-21.29-13.96-3.16,8.57-10.5,12.85-22.01,12.85h-7.07v-11.9h7.07c6.11,0,10.42-1.56,12.93-4.68,2.68-3.33,4.02-9.17,4.02-17.53v-32.52h15.1v29.59c0,9.68.67,16.16,2.01,19.43,1.87,4.6,5.81,6.9,11.81,6.9,11.3,0,16.95-8.73,16.95-26.18v-36.25h14.7v41.64c0,8.25,1.77,13.67,5.3,16.26,3.11,2.22,9.35,3.33,18.72,3.33h5.38c.91-7.4,1.37-14.91,1.37-22.53,0-16.18-1.82-31.12-5.46-44.82l14.62-2.62c3.96,13.91,5.95,29.27,5.95,46.09,0,6.66-.38,14.62-1.12,23.88h18.08v11.9h-38.32Zm-50.78-93.76c-1.71-1.69-2.57-3.81-2.57-6.35,0-2.33.86-4.33,2.57-6.03,1.66-1.69,3.72-2.54,6.19-2.54s4.53.82,6.19,2.46c1.66,1.64,2.49,3.68,2.49,6.11s-.83,4.57-2.49,6.27-3.72,2.54-6.19,2.54-4.53-.82-6.19-2.46Zm12.37-19.28c-1.61-1.59-2.41-3.54-2.41-5.87s.8-4.39,2.41-6.03c1.61-1.64,3.59-2.46,5.95-2.46s4.26.82,5.86,2.46c1.61,1.64,2.41,3.65,2.41,6.03s-.8,4.23-2.41,5.87c-1.61,1.59-3.56,2.38-5.86,2.38s-4.34-.79-5.95-2.38Zm11.97,19.28c-1.71-1.69-2.57-3.81-2.57-6.35,0-2.33.86-4.33,2.57-6.03,1.66-1.69,3.72-2.54,6.19-2.54s4.45.82,6.11,2.46c1.71,1.69,2.57,3.73,2.57,6.11s-.86,4.52-2.57,6.27c-1.66,1.69-3.7,2.54-6.11,2.54s-4.53-.82-6.19-2.46Z"/>
        <path class="cls-1" d="m448.16,393.56h24.02v-64.49h15.1v64.49h16.95v11.9h-56.08v-11.9Zm10.61-81.86c-1.71-1.69-2.57-3.81-2.57-6.35,0-2.33.86-4.33,2.57-6.03,1.66-1.69,3.72-2.54,6.19-2.54s4.45.82,6.11,2.46c1.71,1.69,2.57,3.73,2.57,6.11s-.86,4.52-2.57,6.27c-1.66,1.69-3.7,2.54-6.11,2.54s-4.53-.82-6.19-2.46Zm24.26,0c-1.77-1.69-2.65-3.81-2.65-6.35,0-2.33.88-4.33,2.65-6.03,1.71-1.69,3.8-2.54,6.27-2.54s4.45.82,6.11,2.46c1.61,1.69,2.41,3.73,2.41,6.11s-.8,4.57-2.41,6.27c-1.66,1.69-3.7,2.54-6.11,2.54s-4.55-.82-6.27-2.46Z"/>
        <path class="cls-1" d="m501.75,393.56h7.07c6.11,0,10.42-1.56,12.93-4.68,2.68-3.33,4.02-9.17,4.02-17.53v-32.52h15.1v29.59c0,9.68.67,16.16,2.01,19.43,1.87,4.6,5.81,6.9,11.81,6.9,11.3,0,16.95-8.73,16.95-26.18v-36.25h14.7v41.64c0,8.25,1.77,13.67,5.3,16.26,3.11,2.22,9.35,3.33,18.72,3.33h5.38c.91-7.4,1.37-14.91,1.37-22.53,0-16.18-1.82-31.12-5.46-44.82l14.62-2.62c3.96,13.91,5.95,29.27,5.95,46.09,0,12.21-.88,24.14-2.65,35.77h-18.72c-10.5,0-18.13-.9-22.9-2.7-4.98-1.85-8.65-5.29-11.01-10.31-3.64,9.41-11.92,14.12-24.83,14.12-11.57,0-18.67-4.65-21.29-13.96-3.16,8.57-10.5,12.85-22.01,12.85h-7.07v-11.9Z"/>
        <path class="cls-1" d="m681.96,378.96h-15.27l-26.19-86.94,15.1-2.06,26.35,89Zm-34.39,26.49v-11.9h50.86v-102.64h15.27v114.54h-66.12Z"/>
        <path class="cls-1" d="m743.22,290.92h15.1v114.54h-15.1v-114.54Z"/>
        <path class="cls-1" d="m880.74,405.46c-27.42,0-41.75-11.42-42.98-34.27h-4.74c-5.89,0-9.86,1.85-11.89,5.55-1.23,2.22-1.85,5.23-1.85,9.04,0,2.65.29,5.63.88,8.96l8.52,52.91h-14.78l-8.36-51.64c-.54-3.33-.8-6.42-.8-9.28,0-7.09,1.58-12.85,4.74-17.29,4.71-6.77,12.77-10.15,24.18-10.15h4.74c1.55-9.41,5.68-16.97,12.37-22.69,7.28-6.19,16.6-9.28,27.96-9.28,23.46,0,35.19,12.14,35.19,36.41v41.72h-33.18Zm18.4-39.18c0-18.08-7.29-27.13-21.85-27.13-7.55,0-13.55,2.49-18,7.46-4.39,4.87-6.59,11.37-6.59,19.51,0,18.3,10.04,27.45,30.13,27.45h16.31v-27.29Z"/>
        <path class="cls-1" d="m932.92,393.56h52.79c-.21-14.96-3.54-26.76-9.96-35.38-6.54-8.73-17.03-15.28-31.49-19.67l3.78-12.69c17.73,5.45,30.72,13.3,38.97,23.56,8.68,10.79,13.26,25.52,13.74,44.18h12.61v11.9h-80.42v-11.9Z"/>
        <path class="cls-1" d="m1011.09,393.56h9.56c3.7,0,7.58.19,11.65.56-7.23-5.29-10.85-14.33-10.85-27.13,0-11.37,3.56-20.75,10.69-28.16,7.39-7.67,17.11-11.5,29.16-11.5,11.14,0,19.87,2.88,26.19,8.65,6.96,6.45,10.44,16.13,10.44,29.03s-4.26,22.98-12.77,29.11c5.57-.37,10.34-.56,14.3-.56h11.33v11.9h-99.71v-11.9Zm64.76-6.66c4.55-4.92,6.83-11.9,6.83-20.94,0-17.87-7.58-26.81-22.74-26.81-6.48,0-11.81,2.14-15.99,6.42-4.82,4.81-7.23,11.55-7.23,20.23,0,18.51,7.69,27.76,23.06,27.76,6.59,0,11.94-2.22,16.07-6.66Zm-33.74-75.2c-1.71-1.69-2.57-3.81-2.57-6.35,0-2.33.86-4.33,2.57-6.03,1.66-1.69,3.72-2.54,6.19-2.54s4.45.82,6.11,2.46c1.71,1.69,2.57,3.73,2.57,6.11s-.86,4.52-2.57,6.27c-1.66,1.69-3.7,2.54-6.11,2.54s-4.53-.82-6.19-2.46Zm24.26,0c-1.77-1.69-2.65-3.81-2.65-6.35,0-2.33.88-4.33,2.65-6.03,1.71-1.69,3.8-2.54,6.27-2.54s4.42.82,6.03,2.46c1.66,1.69,2.49,3.73,2.49,6.11s-.83,4.57-2.49,6.27c-1.66,1.69-3.67,2.54-6.03,2.54s-4.55-.82-6.27-2.46Z"/>
        <path class="cls-1" d="m1108.31,393.56h24.02v-64.49h15.1v76.39h-39.13v-11.9Zm25.31-84.4c-1.71-1.69-2.57-3.75-2.57-6.19s.86-4.6,2.57-6.35c1.71-1.75,3.8-2.62,6.27-2.62s4.66.87,6.43,2.62c1.77,1.69,2.65,3.81,2.65,6.35s-.88,4.5-2.65,6.19c-1.82,1.69-3.96,2.54-6.43,2.54s-4.55-.85-6.27-2.54Z"/>
        <path class="cls-1" d="m125.56,600.4c-28.76,0-43.14-12.61-43.14-37.84,0-11.47,3.4-20.89,10.2-28.24,7.44-8.04,17.86-12.06,31.25-12.06,12.05,0,23.08,1.9,33.1,5.71v60.52h18.24v11.9h-49.65Zm16.55-62.5c-5.36-2.54-11.97-3.81-19.84-3.81s-13.61,2.46-18,7.38c-4.39,4.87-6.59,11.34-6.59,19.43,0,18.4,9.99,27.6,29.97,27.6h14.46v-50.61Zm-37.92-31.25c-1.66-1.69-2.49-3.81-2.49-6.35,0-2.33.83-4.33,2.49-6.03,1.66-1.69,3.72-2.54,6.19-2.54s4.47.82,6.19,2.46c1.71,1.69,2.57,3.73,2.57,6.11s-.86,4.52-2.57,6.27c-1.71,1.69-3.78,2.54-6.19,2.54s-4.53-.82-6.19-2.46Zm24.26,0c-1.71-1.69-2.57-3.81-2.57-6.35,0-2.33.86-4.33,2.57-6.03,1.71-1.69,3.8-2.54,6.27-2.54s4.45.82,6.11,2.46c1.66,1.69,2.49,3.73,2.49,6.11s-.83,4.57-2.49,6.27c-1.66,1.69-3.7,2.54-6.11,2.54s-4.55-.82-6.27-2.46Z"/>
        <path class="cls-1" d="m172.72,588.5h33.1v-64.49h15.1v76.39h-48.21v-11.9Zm20.17,42.28c-1.71,1.75-3.78,2.62-6.19,2.62s-4.53-.85-6.19-2.54c-1.66-1.64-2.49-3.73-2.49-6.27,0-2.38.83-4.39,2.49-6.03,1.66-1.69,3.72-2.54,6.19-2.54s4.47.82,6.19,2.46c1.71,1.64,2.57,3.67,2.57,6.11s-.86,4.49-2.57,6.19Zm24.26,0c-1.66,1.75-3.7,2.62-6.11,2.62s-4.55-.85-6.27-2.54c-1.71-1.69-2.57-3.78-2.57-6.27s.86-4.39,2.57-6.03c1.71-1.69,3.8-2.54,6.27-2.54s4.45.82,6.11,2.46c1.66,1.64,2.49,3.67,2.49,6.11s-.83,4.49-2.49,6.19Z"/>
        <path class="cls-1" d="m231.33,639.9l1.61-12.37c5.09,1.85,10.63,2.78,16.63,2.78,7.28,0,12.64-1.98,16.07-5.95,3.91-4.39,5.87-11.66,5.87-21.81v-78.53h15.1v77.18c0,27.29-12.72,40.93-38.16,40.93-5.62,0-11.33-.74-17.11-2.22Z"/>
        <path class="cls-1" d="m314.77,485.86h15.1v114.54h-15.1v-114.54Z"/>
        <path class="cls-1" d="m352.41,588.5h52.79c-.21-14.96-3.54-26.76-9.96-35.38-6.54-8.73-17.03-15.28-31.49-19.67l3.78-12.69c18.26,5.61,31.52,13.8,39.77,24.59,8.62,11.32,12.93,26.97,12.93,46.96v8.09h-67.81v-11.9Z"/>
        <path class="cls-1" d="m470.27,573.9h-15.27l-26.19-86.94,15.1-2.06,26.35,89Zm-34.39,26.49v-11.9h50.86v-102.64h15.27v114.54h-66.12Zm10.2,32.2c4.82,0,8.11.16,9.88.48-2.2-1.32-3.29-3.49-3.29-6.5,0-3.91,1.63-7.17,4.9-9.76,3.54-2.8,8.33-4.2,14.38-4.2,3.16,0,6.16.32,9,.95l-1.45,8.57c-2.62-.63-5.28-.95-7.95-.95-5.25,0-7.87,1.85-7.87,5.55,0,3.91,3.67,5.87,11.01,5.87h9.88v8.57h-38.48v-8.57Z"/>
        <path class="cls-1" d="m531.54,485.86h15.1v114.54h-15.1v-114.54Z"/>
        <path class="cls-1" d="m660.01,485.86h15.19v104.78c0,16.02-3.83,28.08-11.49,36.17-6.96,7.4-16.68,11.1-29.16,11.1-27,0-40.49-15.1-40.49-45.29,0-10.63,1.37-20.91,4.1-30.86l15.67-2.93c-3.11,10.52-4.66,21.29-4.66,32.28,0,23.32,8.94,34.98,26.83,34.98,16.01,0,24.02-11.32,24.02-33.95v-106.29Z"/>
        <path class="cls-1" d="m692.67,639.03l1.04-12.45c9.21,2.06,17.97,3.09,26.27,3.09,20.94,0,31.41-8.46,31.41-25.38v-3.89h-16.55c-28.76,0-43.14-12.61-43.14-37.84,0-11.47,3.4-20.89,10.2-28.24,7.44-8.04,17.86-12.06,31.25-12.06,12.05,0,23.08,1.9,33.1,5.71v60.52h18.08v11.9h-18.08v3.09c0,10.68-3.56,19.38-10.69,26.1-8.41,7.93-20.81,11.9-37.2,11.9-8.46,0-17.03-.82-25.71-2.46Zm58.73-101.13c-5.36-2.54-11.97-3.81-19.84-3.81s-13.61,2.46-18,7.38c-4.39,4.87-6.59,11.34-6.59,19.43,0,18.4,9.99,27.6,29.97,27.6h14.46v-50.61Z"/>
        <path class="cls-1" d="m782.1,588.5h23.06v-102.64h15.1v102.64h18.08v11.9h-56.24v-11.9Z"/>
        <path class="cls-1" d="m835.84,588.5h67.97c.75-6.61,1.12-12.16,1.12-16.66,0-12.69-2.62-21.87-7.87-27.52-5.62-6.03-15-9.04-28.12-9.04-6.54,0-12.64.37-18.32,1.11v-11.66c5.78-.9,12.32-1.35,19.6-1.35,17.62,0,30.42,4.02,38.4,12.06,7.55,7.61,11.33,19.35,11.33,35.22,0,5.08-.35,11.03-1.04,17.85h15.18v11.9h-98.26v-11.9Z"/>
        <path class="cls-1" d="m931.53,588.5h23.06v-102.64h15.1v114.54h-38.16v-11.9Z"/>
        <path class="cls-1" d="m999.22,485.86h15.1v114.54h-15.1v-114.54Z"/>
        <path class="cls-1" d="m1029.47,639.03l1.04-12.45c9.21,2.06,17.97,3.09,26.27,3.09,20.94,0,31.41-8.46,31.41-25.38v-3.89h-16.55c-28.76,0-43.14-12.61-43.14-37.84,0-11.47,3.4-20.89,10.2-28.24,7.44-8.04,17.86-12.06,31.25-12.06,12.05,0,23.08,1.9,33.1,5.71v75.51c0,10.68-3.56,19.38-10.69,26.1-8.41,7.93-20.81,11.9-37.2,11.9-8.46,0-17.03-.82-25.71-2.46Zm58.73-101.13c-5.36-2.54-11.97-3.81-19.84-3.81s-13.61,2.46-18,7.38c-4.39,4.87-6.59,11.34-6.59,19.43,0,18.4,9.99,27.6,29.97,27.6h14.46v-50.61Z"/>
      </g>
      <g>
        <g>
          <path class="cls-1" d="m1518.95,607.16h20.43v96.22c0,31.23-13.85,46.84-41.54,46.84s-39.95-14.49-39.95-43.48c0-9.36,1.24-18.48,3.71-27.34l21.11-3.81c-2.93,10.16-4.39,19.95-4.39,29.36,0,19.67,7.09,29.51,21.26,29.51,12.91,0,19.37-9.84,19.37-29.51v-97.79Z"/>
          <path class="cls-1" d="m1564.8,715.04v-107.88h20.43v91.96h11.05c6.05,0,10.52-1.47,13.39-4.41,3.18-3.24,4.77-8.71,4.77-16.44,0-10.36,3.33-18.97,9.99-25.85,7.36-7.52,17.45-11.28,30.27-11.28,23.36,0,35.03,11.73,35.03,35.19v22.79h13.01v15.91h-44.79c-16.7,0-28.28-3.98-34.73-11.95-2.98,7.52-10.47,11.5-22.47,11.95h-35.94Zm104.95-36.23c0-14.49-5.52-21.74-16.57-21.74-5.7,0-10.24,1.94-13.62,5.83-3.23,3.79-4.84,8.72-4.84,14.79,0,14.29,7.74,21.44,23.23,21.44h11.8v-20.32Z"/>
          <path class="cls-1" d="m1700.78,699.12h23.68c-8.02-4.68-12.03-12.28-12.03-22.79s3.33-18.35,9.99-24.73c7.31-6.97,17.5-10.46,30.57-10.46,6.91,0,13.32.97,19.22,2.91l-3.56,16.06c-4.74-2.14-10.11-3.21-16.12-3.21s-10.57,1.77-14.15,5.3c-3.58,3.54-5.37,8.24-5.37,14.12,0,6.87,2.8,12.3,8.4,16.29,6.1,4.33,15.03,6.5,26.79,6.5h12.11v15.91h-79.53v-15.91Z"/>
          <path class="cls-1" d="m1780.38,616.2c3.33,0,5.95.2,7.87.6-1.51-1.15-2.27-2.99-2.27-5.53,0-4.23,1.74-7.72,5.22-10.46,3.88-2.99,9.31-4.48,16.27-4.48,3.93,0,6.99.3,9.16.9l-1.82,10.38c-1.82-.5-4.42-.75-7.79-.75-4.64,0-6.96,1.47-6.96,4.41,0,3.29,3.3,4.93,9.91,4.93h9.46v10.53h-39.04v-10.53Zm48.65,71.42h-20.73l-16.57-55.81h21.04l16.27,55.81Zm-36.55,27.42v-15.91h47.9v-89.35h20.43v105.26h-68.33Z"/>
          <path class="cls-1" d="m1885.45,607.16h20.43v107.88h-20.43v-107.88Z"/>
          <path class="cls-1" d="m2004.63,715.04c-20.23,0-34.99-4.06-44.27-12.18-8.42-7.32-12.64-18.35-12.64-33.1,0-8.76,1.34-16.78,4.01-24.05l21.87-3.51c-3.53,7.62-5.3,16.04-5.3,25.25,0,11.11,2.8,19.08,8.4,23.91,5.9,5.18,15.92,7.77,30.04,7.77h21.11v-56.03h20.43v71.94h-43.66Zm-22.47-86.58c-1.97-1.99-2.95-4.43-2.95-7.32s.98-5.35,2.95-7.4c1.97-2.04,4.39-3.06,7.26-3.06s5.4,1.02,7.42,3.06c1.97,1.99,2.95,4.46,2.95,7.4s-.98,5.28-2.95,7.32c-2.02,2.04-4.49,3.06-7.42,3.06s-5.3-1.02-7.26-3.06Zm25.73,0c-1.97-1.99-2.95-4.43-2.95-7.32s.98-5.35,2.95-7.4c1.97-2.04,4.39-3.06,7.26-3.06s5.3,1.02,7.26,3.06c1.97,1.99,2.95,4.46,2.95,7.4s-.98,5.28-2.95,7.32c-2.02,2.04-4.44,3.06-7.26,3.06s-5.3-1.02-7.26-3.06Z"/>
          <path class="cls-1" d="m2071.41,607.16h20.43v91.96h15.51v15.91h-35.94v-107.88Z"/>
          <path class="cls-1" d="m2105.01,699.12h21.72v-56.03h20.43v56.03h15.21v15.91h-57.36v-15.91Zm24.37-71.87c-2.07-2.04-3.1-4.56-3.1-7.54s1.03-5.38,3.1-7.47c2.12-2.04,4.64-3.06,7.57-3.06s5.45,1.02,7.57,3.06c2.07,2.09,3.1,4.58,3.1,7.47s-1.04,5.38-3.1,7.47c-2.12,2.04-4.64,3.06-7.57,3.06s-5.5-1-7.57-2.99Z"/>
          <path class="cls-1" d="m2160.02,699.12h21.72v-56.03h20.43v56.03h15.21v15.91h-57.36v-15.91Zm12.86,46.39c-2.07-2.04-3.1-4.56-3.1-7.55s1.03-5.38,3.1-7.47c2.12-2.04,4.64-3.06,7.57-3.06s5.5,1.02,7.57,3.06c2.12,2.04,3.18,4.53,3.18,7.47s-1.06,5.43-3.18,7.47c-2.07,2.09-4.59,3.14-7.57,3.14s-5.45-1.02-7.57-3.06Z"/>
          <path class="cls-1" d="m2215.03,699.12h19.22v-91.96h20.43v107.88h-39.65v-15.91Z"/>
        </g>
        <g>
          <path class="cls-1" d="m1936.4,273.92l-30.04,74.48c-11.82,29.33-40.1,48.29-72.05,48.29h-52.42l-43.25,108.13h146.3c25.49,0,48.08-15.12,57.54-38.52l77.05-191.21-83.13-1.18Z"/>
          <path class="cls-1" d="m1834.31,381.22c25.5,0,48.06-15.13,57.49-38.54l26.9-66.71,50.19-124.47-83.04-1.18-31.81,78.91c-11.82,29.32-40.11,48.27-72.08,48.27h-52.48l-41.47,103.72h146.3Z"/>
          <path class="cls-1" d="m1781.97,262.02c25.51,0,48.09-15.12,57.52-38.52l28.53-70.78,48.53-120.4-145.15-2.06c-25.42-.66-49.07,15.18-58.47,38.66l-77.25,193.11h146.29Z"/>
        </g>
      </g>
      <line class="cls-2" x1="1297.85" y1="0" x2="1299.86" y2="781.01"/>
    </g>
  </g>
</svg>