<?xml version="1.0" encoding="UTF-8"?>
<svg xmlns="http://www.w3.org/2000/svg" xmlns:xlink="http://www.w3.org/1999/xlink" viewBox="0 0 739.77 169.1">
  <defs>
    <style>
      .cls-1 {
        fill: #fff;
      }

      .cls-2 {
        isolation: isolate;
      }

      .cls-3 {
        fill: #28c2e4;
      }

      .cls-4 {
        fill: url(#linear-gradient);
        mix-blend-mode: multiply;
        opacity: .65;
      }
    </style>
    <linearGradient id="linear-gradient" x1="0" y1="84.55" x2="739.77" y2="84.55" gradientUnits="userSpaceOnUse">
      <stop offset="0" stop-color="#174f80" stop-opacity="0"/>
      <stop offset="1" stop-color="#0f497b"/>
    </linearGradient>
  </defs>
  <g class="cls-2">
    <g id="Layer_2" data-name="Layer 2">
      <g id="Layer_1-2" data-name="Layer 1">
        <g>
          <path class="cls-4" d="m64.55,0h675.22v169.1H0v-104.55C0,28.92,28.92,0,64.55,0Z"/>
          <rect class="cls-3" x="481.16" y="123.88" width="223.97" height="11.78"/>
          <g>
            <path class="cls-1" d="m108.07,92.19c-11.28,0-16.92-4.88-16.92-14.64,0-4.48,1.33-8.16,4.01-11.03,3-3.21,7.24-4.81,12.73-4.81,4.95,0,9.35.73,13.19,2.19v21.73h6.16v6.56h-19.17Zm-9.21-35.72c-.8-.82-1.2-1.83-1.2-3.02s.4-2.21,1.2-3.05c.82-.84,1.81-1.26,2.96-1.26s2.2.42,3.02,1.26c.8.82,1.2,1.84,1.2,3.05s-.4,2.18-1.2,3.02c-.82.84-1.83,1.26-3.02,1.26s-2.16-.42-2.96-1.26Zm14.14,12.94c-1.6-.76-3.61-1.14-6.01-1.14s-4.16.8-5.52,2.4c-1.34,1.56-2,3.59-2,6.1,0,5.9,3.16,8.84,9.49,8.84h4.04v-16.21Zm-3.67-12.94c-.8-.82-1.2-1.83-1.2-3.02s.4-2.21,1.2-3.05c.82-.84,1.81-1.26,2.96-1.26s2.16.42,2.96,1.26c.8.82,1.2,1.84,1.2,3.05s-.4,2.18-1.2,3.02c-.8.84-1.79,1.26-2.96,1.26s-2.16-.42-2.96-1.26Z"/>
            <path class="cls-1" d="m126.31,85.63h8.44v-23.11h8.35v1.6c0,3.53-.26,6.65-.77,9.34h.12c1.36-3.72,3.54-6.64,6.56-8.75,2.83-1.99,5.97-2.99,9.4-2.99,4.33,0,7.65,1.27,9.95,3.82,2.26,2.49,3.39,5.99,3.39,10.51,0,3.86-.91,7.06-2.74,9.58h6.66v6.56h-49.37v-6.56Zm26.87,0c6.66,0,9.98-3.03,9.98-9.09,0-5.46-2.15-8.2-6.44-8.2-3.29,0-6.27,1.77-8.94,5.3-2.53,3.35-4.13,7.34-4.81,11.99h10.2Z"/>
            <path class="cls-1" d="m174.32,85.63h8.44v-23.11h8.35v1.6c0,3.53-.26,6.65-.77,9.34h.12c1.36-3.72,3.54-6.64,6.56-8.75,2.83-1.99,5.97-2.99,9.4-2.99,4.33,0,7.65,1.27,9.95,3.82,2.26,2.49,3.39,5.99,3.39,10.51,0,3.86-.91,7.06-2.74,9.58h6.66v6.56h-49.37v-6.56Zm26.87,0c6.66,0,9.98-3.03,9.98-9.09,0-5.46-2.15-8.2-6.44-8.2-3.29,0-6.27,1.77-8.94,5.3-2.53,3.35-4.13,7.34-4.81,11.99h10.2Z"/>
            <path class="cls-1" d="m222.33,85.63h24.44c.21-1.68.31-3.29.31-4.81,0-4.11-.92-7.13-2.77-9.06-1.97-2.03-5.18-3.05-9.61-3.05-2.34,0-4.76.17-7.24.52v-6.5c2.96-.39,5.65-.58,8.07-.58,6.96,0,12.04,1.55,15.22,4.65,3.06,2.96,4.59,7.53,4.59,13.71,0,1.79-.08,3.49-.25,5.12h4.93v6.56h-37.69v-6.56Zm11.9-29.65c-.86-.84-1.29-1.88-1.29-3.11s.43-2.22,1.29-3.08,1.86-1.26,3.05-1.26,2.24.42,3.08,1.26c.86.86,1.29,1.89,1.29,3.08s-.43,2.22-1.29,3.08-1.87,1.26-3.08,1.26-2.21-.41-3.05-1.23Z"/>
            <path class="cls-1" d="m259.03,85.63h8.84v-23.11h8.32v23.11h5.61v6.56h-22.77v-6.56Zm3.61-29.15c-.8-.82-1.2-1.83-1.2-3.02s.4-2.21,1.2-3.05c.82-.84,1.81-1.26,2.96-1.26s2.2.42,3.02,1.26c.8.82,1.2,1.84,1.2,3.05s-.4,2.18-1.2,3.02c-.82.84-1.83,1.26-3.02,1.26s-2.16-.42-2.96-1.26Zm10.48,0c-.8-.82-1.2-1.83-1.2-3.02s.4-2.21,1.2-3.05c.82-.84,1.81-1.26,2.96-1.26s2.16.42,2.96,1.26c.8.82,1.2,1.84,1.2,3.05s-.4,2.18-1.2,3.02c-.82.84-1.81,1.26-2.96,1.26s-2.16-.42-2.96-1.26Z"/>
            <path class="cls-1" d="m280.85,92.19v-6.56h3.61c1.46,0,2.63.14,3.51.43-2.34-1.71-3.51-4.71-3.51-9.03s1.36-7.83,4.07-10.66c3-3.1,7.11-4.65,12.33-4.65,9.51,0,14.27,4.84,14.27,14.51v15.96h-34.27Zm26.13-14.95c0-5.98-2.25-8.97-6.75-8.97-2.32,0-4.17.8-5.55,2.4-1.32,1.56-1.97,3.59-1.97,6.1,0,5.9,3.15,8.84,9.46,8.84h4.81v-8.38Z"/>
            <path class="cls-1" d="m346.98,92.19c-11.28,0-16.92-4.88-16.92-14.64,0-4.48,1.33-8.16,4.01-11.03,3-3.21,7.24-4.81,12.73-4.81,4.95,0,9.35.73,13.19,2.19v21.73h6.16v6.56h-19.17Zm-9.21-35.72c-.8-.82-1.2-1.83-1.2-3.02s.4-2.21,1.2-3.05c.82-.84,1.81-1.26,2.96-1.26s2.2.42,3.02,1.26c.8.82,1.2,1.84,1.2,3.05s-.4,2.18-1.2,3.02c-.82.84-1.83,1.26-3.02,1.26s-2.16-.42-2.96-1.26Zm14.14,12.94c-1.6-.76-3.61-1.14-6.01-1.14s-4.16.8-5.52,2.4c-1.34,1.56-2,3.59-2,6.1,0,5.9,3.16,8.84,9.49,8.84h4.04v-16.21Zm-3.67-12.94c-.8-.82-1.2-1.83-1.2-3.02s.4-2.21,1.2-3.05c.82-.84,1.81-1.26,2.96-1.26s2.16.42,2.96,1.26c.8.82,1.2,1.84,1.2,3.05s-.4,2.18-1.2,3.02c-.8.84-1.79,1.26-2.96,1.26s-2.16-.42-2.96-1.26Z"/>
            <path class="cls-1" d="m365.22,85.63h11.86v-23.11h8.32v29.68h-20.18v-6.56Zm8.38,19.04c-.82.84-1.83,1.26-3.02,1.26s-2.16-.41-2.96-1.23c-.8-.82-1.2-1.84-1.2-3.05s.4-2.18,1.2-3.02c.82-.84,1.81-1.26,2.96-1.26s2.2.41,3.02,1.23c.8.84,1.2,1.86,1.2,3.05s-.4,2.2-1.2,3.02Zm10.42,0c-.82.84-1.81,1.26-2.96,1.26s-2.16-.41-2.96-1.23c-.8-.82-1.2-1.84-1.2-3.05s.4-2.18,1.2-3.02c.82-.84,1.81-1.26,2.96-1.26s2.16.41,2.96,1.23c.8.84,1.2,1.86,1.2,3.05s-.4,2.18-1.2,3.02Z"/>
            <path class="cls-1" d="m392.33,85.63h18.74c-.37-9.35-5.33-15.23-14.88-17.66l2-6.96c7.07,1.87,12.29,4.87,15.65,9,3.58,4.4,5.36,10.41,5.36,18.03v4.16h-26.87v-6.56Z"/>
            <path class="cls-1" d="m424.08,107.26l.52-6.81c3.29.72,6.56,1.08,9.83,1.08,7.29,0,10.94-2.79,10.94-8.38v-.96h-4.93c-11.28,0-16.92-4.88-16.92-14.64,0-4.48,1.33-8.16,4.01-11.03,3-3.21,7.24-4.81,12.73-4.81,4.95,0,9.35.73,13.19,2.19v21.73h6.16v6.56h-6.16v.12c0,4.68-1.53,8.4-4.59,11.16-3.41,3.08-8.46,4.62-15.16,4.62-3.16,0-6.37-.28-9.62-.83Zm21.29-37.84c-1.6-.76-3.61-1.14-6.01-1.14s-4.16.8-5.52,2.4c-1.33,1.56-2,3.59-2,6.1,0,5.9,3.16,8.84,9.49,8.84h4.04v-16.21Z"/>
            <path class="cls-1" d="m458.69,85.63h2.22c5.81,0,10.71-.65,14.7-1.94-5.61-5.26-10.03-8.33-13.25-9.21l.68-5.95c6.47-4.66,12.55-7,18.24-7,4.44,0,7.84,1.04,10.2,3.11,2.07,1.85,3.11,4.26,3.11,7.24,0,4.48-2.15,8.52-6.44,12.11,2.26,1.09,4.6,1.63,7.03,1.63h4.16v6.56h-5.12c-4.75,0-9.08-1.3-13-3.91-5.83,2.61-12.78,3.91-20.83,3.91h-1.7v-6.56Zm23.73-5.49c2.61-2.05,3.91-4.46,3.91-7.21,0-1.56-.49-2.81-1.48-3.76-1.07-1.03-2.58-1.54-4.53-1.54-2.61,0-5.8,1.26-9.58,3.79,1.64.66,5.54,3.56,11.68,8.72Z"/>
            <path class="cls-1" d="m498.38,85.63h3.14c2.1,0,3.55-.53,4.38-1.6.88-1.13,1.33-3.21,1.33-6.23v-11.49h8.32v11.68c0,3.04.26,5.11.77,6.19.6,1.29,1.79,1.94,3.57,1.94,3.37,0,5.05-2.69,5.05-8.07v-14.27h8.01v15.84c0,2.47.51,4.09,1.54,4.87.99.76,2.96,1.14,5.92,1.14h1.63c.31-2.36.46-4.89.46-7.58,0-5.81-.62-11.45-1.85-16.92l8.14-1.11c1.36,5.65,2.03,11.47,2.03,17.47,0,5.32-.32,10.22-.96,14.7h-10.42c-3.43,0-5.98-.29-7.64-.86-1.79-.64-3.13-1.8-4.04-3.48-1.5,3.23-4.67,4.84-9.52,4.84-4.5,0-7.29-1.63-8.38-4.9-1.29,2.94-4.1,4.41-8.41,4.41h-3.08v-6.56Z"/>
            <path class="cls-1" d="m582.69,92.19c-11.28,0-16.92-4.88-16.92-14.64,0-4.48,1.33-8.16,4.01-11.03,3-3.21,7.24-4.81,12.73-4.81,4.95,0,9.35.73,13.19,2.19v21.73h6.16v6.56h-19.17Zm-9.21-35.72c-.8-.82-1.2-1.83-1.2-3.02s.4-2.21,1.2-3.05c.82-.84,1.81-1.26,2.96-1.26s2.2.42,3.02,1.26c.8.82,1.2,1.84,1.2,3.05s-.4,2.18-1.2,3.02c-.82.84-1.83,1.26-3.02,1.26s-2.16-.42-2.96-1.26Zm14.14,12.94c-1.6-.76-3.61-1.14-6.01-1.14s-4.16.8-5.52,2.4c-1.34,1.56-2,3.59-2,6.1,0,5.9,3.16,8.84,9.49,8.84h4.04v-16.21Zm-3.67-12.94c-.8-.82-1.2-1.83-1.2-3.02s.4-2.21,1.2-3.05c.82-.84,1.81-1.26,2.96-1.26s2.16.42,2.96,1.26c.8.82,1.2,1.84,1.2,3.05s-.4,2.18-1.2,3.02c-.8.84-1.79,1.26-2.96,1.26s-2.16-.42-2.96-1.26Z"/>
            <path class="cls-1" d="m600.94,85.63h18.74c-.37-9.55-5.53-15.49-15.47-17.81v-6.1l25.02-15.66v8.26l-15.41,9.28c9.33,4.19,13.99,12.32,13.99,24.38v4.22h-26.87v-6.56Z"/>
            <path class="cls-1" d="m643.06,92.19v.25c0,10.52-5.2,15.78-15.59,15.78-1.85,0-3.62-.21-5.3-.62l.62-6.62c1.75.49,3.45.74,5.12.74,2.28,0,3.95-.62,5.02-1.85,1.21-1.4,1.82-3.72,1.82-6.96v-30.39h8.32v23.11h7.4c2.09,0,3.55-.53,4.38-1.6.88-1.13,1.33-3.21,1.33-6.23v-11.49h8.32v11.68c0,3.04.26,5.11.77,6.19.6,1.29,1.79,1.94,3.58,1.94,3.37,0,5.05-2.69,5.05-8.07v-14.27h8.01v15.84c0,2.47.51,4.09,1.54,4.87.99.76,2.96,1.14,5.92,1.14h1.63c.31-2.36.46-4.89.46-7.58,0-5.81-.62-11.45-1.85-16.92l8.13-1.11c1.36,5.65,2.03,11.47,2.03,17.47,0,5.32-.32,10.22-.96,14.7h-10.42c-3.43,0-5.98-.29-7.64-.86-1.79-.64-3.13-1.8-4.04-3.48-1.5,3.23-4.67,4.84-9.52,4.84-4.5,0-7.29-1.63-8.38-4.9-1.29,2.94-4.1,4.41-8.41,4.41h-7.33Zm26.35-35.72c-.8-.82-1.2-1.83-1.2-3.02s.4-2.21,1.2-3.05c.82-.84,1.81-1.26,2.96-1.26s2.16.42,2.96,1.26c.8.82,1.2,1.84,1.2,3.05s-.4,2.18-1.2,3.02c-.8.84-1.79,1.26-2.96,1.26s-2.16-.42-2.96-1.26Zm5.39-8.88c-.74-.76-1.11-1.7-1.11-2.8s.37-2.04,1.11-2.8c.76-.78,1.67-1.17,2.74-1.17s2.03.39,2.77,1.17c.76.76,1.14,1.69,1.14,2.8s-.38,2.04-1.14,2.8c-.74.78-1.66,1.17-2.77,1.17s-1.98-.39-2.74-1.17Zm5.02,8.88c-.8-.82-1.2-1.83-1.2-3.02s.4-2.21,1.2-3.05c.82-.84,1.83-1.26,3.02-1.26s2.16.42,2.96,1.26c.8.82,1.2,1.84,1.2,3.05s-.4,2.18-1.2,3.02c-.82.84-1.81,1.26-2.96,1.26s-2.2-.42-3.02-1.26Z"/>
          </g>
        </g>
      </g>
    </g>
  </g>
</svg>